<svg width="22" height="22" viewBox="0 0 22 22" fill="none" xmlns="http://www.w3.org/2000/svg">
  <path d="M1 1H8.5V8.5H1V1ZM13.5 1H21V8.5H13.5V1ZM1 13.5H8.5V21H1V13.5ZM13.5 17.25C13.5 18.2446 13.8951 19.1984 14.5983 19.9017C15.3016 20.6049 16.2554 21 17.25 21C18.2446 21 19.1984 20.6049 19.9017 19.9017C20.6049 19.1984 21 18.2446 21 17.25C21 16.2554 20.6049 15.3016 19.9017 14.5983C19.1984 13.8951 18.2446 13.5 17.25 13.5C16.2554 13.5 15.3016 13.8951 14.5983 14.5983C13.8951 15.3016 13.5 16.2554 13.5 17.25Z" fill="currentColor"/>
</svg>